<svg width="44" height="44" viewBox="0 0 44 44" fill="none" xmlns="http://www.w3.org/2000/svg">
<rect width="44" height="44" rx="10" fill="#FE6900"/>
<path d="M12.071 22.1435V20.8665C13.2176 20.8665 14.0174 20.6262 14.4705 20.1456C14.9305 19.665 15.1605 18.8617 15.1605 17.7358V14.4403C15.1605 13.4929 15.2498 12.6725 15.4283 11.979C15.6136 11.2856 15.9123 10.7124 16.3242 10.2592C16.7362 9.80611 17.2854 9.4697 17.9719 9.25C18.6585 9.0303 19.5064 8.92045 20.5156 8.92045V10.9389C19.7192 10.9389 19.091 11.0625 18.631 11.3097C18.1779 11.5568 17.8552 11.9413 17.663 12.4631C17.4776 12.978 17.3849 13.6371 17.3849 14.4403V18.5597C17.3849 19.0952 17.3129 19.5826 17.1687 20.022C17.0314 20.4614 16.7739 20.839 16.3963 21.1548C16.0187 21.4706 15.4798 21.7144 14.7795 21.886C14.0861 22.0576 13.1832 22.1435 12.071 22.1435ZM20.5156 35.2841C19.5064 35.2841 18.6585 35.1742 17.9719 34.9545C17.2854 34.7348 16.7362 34.3984 16.3242 33.9453C15.9123 33.4922 15.6136 32.9189 15.4283 32.2255C15.2498 31.5321 15.1605 30.7116 15.1605 29.7642V26.4688C15.1605 25.3428 14.9305 24.5395 14.4705 24.0589C14.0174 23.5784 13.2176 23.3381 12.071 23.3381V22.0611C13.1832 22.0611 14.0861 22.1469 14.7795 22.3185C15.4798 22.4902 16.0187 22.7339 16.3963 23.0497C16.7739 23.3655 17.0314 23.7431 17.1687 24.1825C17.3129 24.6219 17.3849 25.1094 17.3849 25.6449V29.7642C17.3849 30.5675 17.4776 31.2266 17.663 31.7415C17.8552 32.2564 18.1779 32.6374 18.631 32.8846C19.091 33.1386 19.7192 33.2656 20.5156 33.2656V35.2841ZM12.071 23.3381V20.8665H14.5014V23.3381H12.071ZM30.9401 22.0611V23.3381C29.7935 23.3381 28.9903 23.5784 28.5303 24.0589C28.0771 24.5395 27.8506 25.3428 27.8506 26.4688V29.7642C27.8506 30.7116 27.7579 31.5321 27.5725 32.2255C27.394 32.9189 27.0988 33.4922 26.6869 33.9453C26.2749 34.3984 25.7257 34.7348 25.0392 34.9545C24.3526 35.1742 23.5047 35.2841 22.4955 35.2841V33.2656C23.2919 33.2656 23.9166 33.1386 24.3698 32.8846C24.8298 32.6374 25.1524 32.2564 25.3378 31.7415C25.53 31.2266 25.6262 30.5675 25.6262 29.7642V25.6449C25.6262 25.1094 25.6948 24.6219 25.8321 24.1825C25.9763 23.7431 26.2372 23.3655 26.6148 23.0497C26.9924 22.7339 27.5279 22.4902 28.2213 22.3185C28.9216 22.1469 29.8279 22.0611 30.9401 22.0611ZM22.4955 8.92045C23.5047 8.92045 24.3526 9.0303 25.0392 9.25C25.7257 9.4697 26.2749 9.80611 26.6869 10.2592C27.0988 10.7124 27.394 11.2856 27.5725 11.979C27.7579 12.6725 27.8506 13.4929 27.8506 14.4403V17.7358C27.8506 18.8617 28.0771 19.665 28.5303 20.1456C28.9903 20.6262 29.7935 20.8665 30.9401 20.8665V22.1435C29.8279 22.1435 28.9216 22.0576 28.2213 21.886C27.5279 21.7144 26.9924 21.4706 26.6148 21.1548C26.2372 20.839 25.9763 20.4614 25.8321 20.022C25.6948 19.5826 25.6262 19.0952 25.6262 18.5597V14.4403C25.6262 13.6371 25.53 12.978 25.3378 12.4631C25.1524 11.9413 24.8298 11.5568 24.3698 11.3097C23.9166 11.0625 23.2919 10.9389 22.4955 10.9389V8.92045ZM30.9401 20.8665V23.3381H28.5097V20.8665H30.9401Z" fill="white"/>
</svg>
